<mxfile host="app.diagrams.net" modified="2024-05-17T20:25:39.749Z" agent="Mozilla/5.0 (Windows NT 10.0; Win64; x64) AppleWebKit/537.36 (KHTML, like Gecko) Chrome/125.0.0.0 Safari/537.36" etag="L131LwcAhFakeix5F3lX" version="24.4.4" type="google">
  <diagram name="Página-1" id="hSJqJVK6OpOvuAeXZhmY">
    <mxGraphModel grid="1" page="1" gridSize="10" guides="1" tooltips="1" connect="1" arrows="1" fold="1" pageScale="1" pageWidth="827" pageHeight="1169" math="0" shadow="0">
      <root>
        <mxCell id="0" />
        <mxCell id="1" parent="0" />
        <mxCell id="9e5UFeLO7dfUDB4W6Dz3-1" value="USUARIOS" style="rounded=0;whiteSpace=wrap;html=1;fillColor=#d5e8d4;strokeColor=#82b366;" vertex="1" parent="1">
          <mxGeometry x="320" y="460" width="100" height="40" as="geometry" />
        </mxCell>
        <mxCell id="9e5UFeLO7dfUDB4W6Dz3-4" value="CONTENIDO" style="rounded=0;whiteSpace=wrap;html=1;fillColor=#d5e8d4;strokeColor=#82b366;" vertex="1" parent="1">
          <mxGeometry x="318" y="132.49" width="100" height="40" as="geometry" />
        </mxCell>
        <mxCell id="9e5UFeLO7dfUDB4W6Dz3-6" value="GENEROS" style="rounded=0;whiteSpace=wrap;html=1;fillColor=#d5e8d4;strokeColor=#82b366;" vertex="1" parent="1">
          <mxGeometry x="700" y="129.44" width="100" height="40" as="geometry" />
        </mxCell>
        <mxCell id="9e5UFeLO7dfUDB4W6Dz3-10" value="PLAYLIST" style="rounded=0;whiteSpace=wrap;html=1;fillColor=#d5e8d4;strokeColor=#82b366;" vertex="1" parent="1">
          <mxGeometry x="320" y="715" width="100" height="40" as="geometry" />
        </mxCell>
        <mxCell id="9e5UFeLO7dfUDB4W6Dz3-12" value="nombre" style="ellipse;whiteSpace=wrap;html=1;" vertex="1" parent="1">
          <mxGeometry x="437" y="435" width="50" height="30" as="geometry" />
        </mxCell>
        <mxCell id="9e5UFeLO7dfUDB4W6Dz3-13" value="&lt;u&gt;id&lt;/u&gt;" style="ellipse;whiteSpace=wrap;html=1;fillColor=#f5f5f5;strokeColor=#666666;fontColor=#333333;" vertex="1" parent="1">
          <mxGeometry x="388" y="538.75" width="30" height="27.5" as="geometry" />
        </mxCell>
        <mxCell id="9e5UFeLO7dfUDB4W6Dz3-14" value="email" style="ellipse;whiteSpace=wrap;html=1;" vertex="1" parent="1">
          <mxGeometry x="249.5" y="496.25" width="50" height="30" as="geometry" />
        </mxCell>
        <mxCell id="9e5UFeLO7dfUDB4W6Dz3-16" value="telefono" style="ellipse;whiteSpace=wrap;html=1;" vertex="1" parent="1">
          <mxGeometry x="383" y="417.5" width="50" height="30" as="geometry" />
        </mxCell>
        <mxCell id="9e5UFeLO7dfUDB4W6Dz3-17" value="RED&lt;div&gt;(amistad/seguir)&lt;/div&gt;" style="rounded=0;whiteSpace=wrap;html=1;fillColor=#d5e8d4;strokeColor=#82b366;" vertex="1" parent="1">
          <mxGeometry x="646" y="455" width="100" height="50" as="geometry" />
        </mxCell>
        <mxCell id="9e5UFeLO7dfUDB4W6Dz3-18" value="&lt;u&gt;usuario_1&lt;/u&gt;" style="ellipse;whiteSpace=wrap;html=1;fillColor=#e1d5e7;strokeColor=#9673a6;" vertex="1" parent="1">
          <mxGeometry x="640" y="526.25" width="70" height="40" as="geometry" />
        </mxCell>
        <mxCell id="9e5UFeLO7dfUDB4W6Dz3-19" value="&lt;u&gt;usuario_2&lt;/u&gt;" style="ellipse;whiteSpace=wrap;html=1;fillColor=#e1d5e7;strokeColor=#9673a6;" vertex="1" parent="1">
          <mxGeometry x="730" y="518.75" width="70" height="40" as="geometry" />
        </mxCell>
        <mxCell id="9e5UFeLO7dfUDB4W6Dz3-20" value="&lt;u&gt;id&lt;/u&gt;" style="ellipse;whiteSpace=wrap;html=1;fillColor=#f5f5f5;strokeColor=#666666;fontColor=#333333;" vertex="1" parent="1">
          <mxGeometry x="770" y="482.5" width="37.5" height="25" as="geometry" />
        </mxCell>
        <mxCell id="9e5UFeLO7dfUDB4W6Dz3-21" value="" style="endArrow=none;html=1;rounded=0;exitX=0.084;exitY=0.782;exitDx=0;exitDy=0;exitPerimeter=0;entryX=0.912;entryY=0.778;entryDx=0;entryDy=0;entryPerimeter=0;" edge="1" parent="1" source="9e5UFeLO7dfUDB4W6Dz3-18" target="9e5UFeLO7dfUDB4W6Dz3-18">
          <mxGeometry width="50" height="50" relative="1" as="geometry">
            <mxPoint x="520" y="505" as="sourcePoint" />
            <mxPoint x="570" y="455" as="targetPoint" />
          </mxGeometry>
        </mxCell>
        <mxCell id="9e5UFeLO7dfUDB4W6Dz3-22" value="" style="endArrow=none;html=1;rounded=0;exitX=0.055;exitY=0.72;exitDx=0;exitDy=0;exitPerimeter=0;entryX=0.941;entryY=0.739;entryDx=0;entryDy=0;entryPerimeter=0;" edge="1" parent="1" source="9e5UFeLO7dfUDB4W6Dz3-19" target="9e5UFeLO7dfUDB4W6Dz3-19">
          <mxGeometry width="50" height="50" relative="1" as="geometry">
            <mxPoint x="644.5" y="589.71" as="sourcePoint" />
            <mxPoint x="705.5" y="589.71" as="targetPoint" />
          </mxGeometry>
        </mxCell>
        <mxCell id="9e5UFeLO7dfUDB4W6Dz3-23" value="contraseña" style="ellipse;whiteSpace=wrap;html=1;" vertex="1" parent="1">
          <mxGeometry x="424" y="498.75" width="70" height="40" as="geometry" />
        </mxCell>
        <mxCell id="9e5UFeLO7dfUDB4W6Dz3-26" value="&lt;u&gt;id&lt;/u&gt;" style="ellipse;whiteSpace=wrap;html=1;fillColor=#f5f5f5;fontColor=#333333;strokeColor=#666666;" vertex="1" parent="1">
          <mxGeometry x="-100" y="526.25" width="30" height="25" as="geometry" />
        </mxCell>
        <mxCell id="9e5UFeLO7dfUDB4W6Dz3-27" value="titulo" style="ellipse;whiteSpace=wrap;html=1;" vertex="1" parent="1">
          <mxGeometry x="429" y="117.49000000000001" width="46" height="26.25" as="geometry" />
        </mxCell>
        <mxCell id="9e5UFeLO7dfUDB4W6Dz3-28" value="&lt;u&gt;u_artista&lt;/u&gt;" style="ellipse;whiteSpace=wrap;html=1;fillColor=#e1d5e7;strokeColor=#9673a6;" vertex="1" parent="1">
          <mxGeometry x="374" y="56.809999999999974" width="58" height="38.12" as="geometry" />
        </mxCell>
        <mxCell id="9e5UFeLO7dfUDB4W6Dz3-29" value="duracion" style="ellipse;whiteSpace=wrap;html=1;" vertex="1" parent="1">
          <mxGeometry x="279" y="72.99" width="54" height="37.01" as="geometry" />
        </mxCell>
        <mxCell id="9e5UFeLO7dfUDB4W6Dz3-30" value="like" style="ellipse;whiteSpace=wrap;html=1;" vertex="1" parent="1">
          <mxGeometry x="382" y="191.4" width="41" height="27.18" as="geometry" />
        </mxCell>
        <mxCell id="9e5UFeLO7dfUDB4W6Dz3-31" value="" style="endArrow=none;html=1;rounded=0;exitX=0.048;exitY=0.718;exitDx=0;exitDy=0;exitPerimeter=0;entryX=0.951;entryY=0.718;entryDx=0;entryDy=0;entryPerimeter=0;" edge="1" parent="1" source="9e5UFeLO7dfUDB4W6Dz3-28" target="9e5UFeLO7dfUDB4W6Dz3-28">
          <mxGeometry width="50" height="50" relative="1" as="geometry">
            <mxPoint x="334" y="223.74" as="sourcePoint" />
            <mxPoint x="424" y="99.74" as="targetPoint" />
          </mxGeometry>
        </mxCell>
        <mxCell id="9e5UFeLO7dfUDB4W6Dz3-32" value="&lt;u&gt;formato&lt;/u&gt;" style="ellipse;whiteSpace=wrap;html=1;fillColor=#e1d5e7;strokeColor=#9673a6;" vertex="1" parent="1">
          <mxGeometry x="258" y="111.22999999999999" width="51" height="32.51" as="geometry" />
        </mxCell>
        <mxCell id="9e5UFeLO7dfUDB4W6Dz3-35" value="tipo" style="ellipse;whiteSpace=wrap;html=1;" vertex="1" parent="1">
          <mxGeometry x="714.5" y="180" width="51" height="30" as="geometry" />
        </mxCell>
        <mxCell id="9e5UFeLO7dfUDB4W6Dz3-36" value="nombre" style="ellipse;whiteSpace=wrap;html=1;" vertex="1" parent="1">
          <mxGeometry x="249" y="740" width="50" height="30" as="geometry" />
        </mxCell>
        <mxCell id="9e5UFeLO7dfUDB4W6Dz3-37" value="&lt;u&gt;usuario_id&lt;/u&gt;" style="ellipse;whiteSpace=wrap;html=1;fillColor=#e1d5e7;strokeColor=#9673a6;" vertex="1" parent="1">
          <mxGeometry x="304" y="770" width="66" height="45" as="geometry" />
        </mxCell>
        <mxCell id="9e5UFeLO7dfUDB4W6Dz3-38" value="cant" style="ellipse;whiteSpace=wrap;html=1;" vertex="1" parent="1">
          <mxGeometry x="439" y="715" width="40" height="30" as="geometry" />
        </mxCell>
        <mxCell id="9e5UFeLO7dfUDB4W6Dz3-39" value="tiempo" style="ellipse;whiteSpace=wrap;html=1;" vertex="1" parent="1">
          <mxGeometry x="391" y="777.5" width="45" height="30" as="geometry" />
        </mxCell>
        <mxCell id="9e5UFeLO7dfUDB4W6Dz3-41" value="" style="endArrow=none;html=1;rounded=0;entryX=0.048;entryY=0.717;entryDx=0;entryDy=0;entryPerimeter=0;exitX=0.945;exitY=0.713;exitDx=0;exitDy=0;exitPerimeter=0;" edge="1" parent="1" source="9e5UFeLO7dfUDB4W6Dz3-37" target="9e5UFeLO7dfUDB4W6Dz3-37">
          <mxGeometry width="50" height="50" relative="1" as="geometry">
            <mxPoint x="262" y="750" as="sourcePoint" />
            <mxPoint x="312" y="700" as="targetPoint" />
          </mxGeometry>
        </mxCell>
        <mxCell id="9e5UFeLO7dfUDB4W6Dz3-43" value="letra" style="ellipse;whiteSpace=wrap;html=1;" vertex="1" parent="1">
          <mxGeometry x="429" y="174.99" width="40" height="20" as="geometry" />
        </mxCell>
        <mxCell id="9e5UFeLO7dfUDB4W6Dz3-44" value="INFORMACION" style="rounded=0;whiteSpace=wrap;html=1;fillColor=#d5e8d4;strokeColor=#82b366;" vertex="1" parent="1">
          <mxGeometry x="-2.5" y="132.49" width="100" height="40" as="geometry" />
        </mxCell>
        <mxCell id="9e5UFeLO7dfUDB4W6Dz3-45" value="&lt;u&gt;tipo&lt;/u&gt;" style="ellipse;whiteSpace=wrap;html=1;fillColor=#e1d5e7;strokeColor=#9673a6;" vertex="1" parent="1">
          <mxGeometry x="-17.5" y="207.49" width="45" height="30" as="geometry" />
        </mxCell>
        <mxCell id="9e5UFeLO7dfUDB4W6Dz3-46" value="&lt;u&gt;id&lt;/u&gt;" style="ellipse;whiteSpace=wrap;html=1;fillColor=#f5f5f5;strokeColor=#666666;fontColor=#333333;" vertex="1" parent="1">
          <mxGeometry x="27.5" y="235" width="30" height="20" as="geometry" />
        </mxCell>
        <mxCell id="9e5UFeLO7dfUDB4W6Dz3-47" value="titulo" style="ellipse;whiteSpace=wrap;html=1;" vertex="1" parent="1">
          <mxGeometry x="57.5" y="215" width="40" height="30" as="geometry" />
        </mxCell>
        <mxCell id="9e5UFeLO7dfUDB4W6Dz3-48" value="&lt;u&gt;id&lt;/u&gt;" style="ellipse;whiteSpace=wrap;html=1;fillColor=#f5f5f5;strokeColor=#666666;fontColor=#333333;" vertex="1" parent="1">
          <mxGeometry x="445" y="755" width="34" height="20" as="geometry" />
        </mxCell>
        <mxCell id="9e5UFeLO7dfUDB4W6Dz3-51" value="seguir" style="rhombus;whiteSpace=wrap;html=1;fillColor=#dae8fc;strokeColor=#6c8ebf;" vertex="1" parent="1">
          <mxGeometry x="500" y="440" width="80" height="80" as="geometry" />
        </mxCell>
        <mxCell id="KXitPNdeSQq8kKih_BAc-2" value="historial" style="rhombus;whiteSpace=wrap;html=1;fillColor=#f8cecc;strokeColor=#b85450;" vertex="1" parent="1">
          <mxGeometry x="335" y="280" width="70" height="70" as="geometry" />
        </mxCell>
        <mxCell id="KXitPNdeSQq8kKih_BAc-7" value="" style="endArrow=none;html=1;rounded=0;" edge="1" parent="1" source="9e5UFeLO7dfUDB4W6Dz3-1" target="KXitPNdeSQq8kKih_BAc-2">
          <mxGeometry width="50" height="50" relative="1" as="geometry">
            <mxPoint x="160" y="380" as="sourcePoint" />
            <mxPoint x="210" y="330" as="targetPoint" />
          </mxGeometry>
        </mxCell>
        <mxCell id="KXitPNdeSQq8kKih_BAc-8" value="" style="endArrow=none;html=1;rounded=0;" edge="1" parent="1" source="KXitPNdeSQq8kKih_BAc-2" target="9e5UFeLO7dfUDB4W6Dz3-4">
          <mxGeometry width="50" height="50" relative="1" as="geometry">
            <mxPoint x="100" y="350" as="sourcePoint" />
            <mxPoint x="150" y="300" as="targetPoint" />
          </mxGeometry>
        </mxCell>
        <mxCell id="KXitPNdeSQq8kKih_BAc-9" value="" style="endArrow=none;html=1;rounded=0;" edge="1" parent="1" source="9e5UFeLO7dfUDB4W6Dz3-1" target="9e5UFeLO7dfUDB4W6Dz3-51">
          <mxGeometry width="50" height="50" relative="1" as="geometry">
            <mxPoint x="490" y="590" as="sourcePoint" />
            <mxPoint x="540" y="540" as="targetPoint" />
          </mxGeometry>
        </mxCell>
        <mxCell id="KXitPNdeSQq8kKih_BAc-11" value="" style="endArrow=none;html=1;rounded=0;" edge="1" parent="1" source="9e5UFeLO7dfUDB4W6Dz3-51" target="9e5UFeLO7dfUDB4W6Dz3-17">
          <mxGeometry width="50" height="50" relative="1" as="geometry">
            <mxPoint x="440" y="620" as="sourcePoint" />
            <mxPoint x="490" y="570" as="targetPoint" />
          </mxGeometry>
        </mxCell>
        <mxCell id="KXitPNdeSQq8kKih_BAc-12" value="&lt;u&gt;id&lt;/u&gt;" style="ellipse;whiteSpace=wrap;html=1;fillColor=#f5f5f5;fontColor=#333333;strokeColor=#666666;" vertex="1" parent="1">
          <mxGeometry x="290" y="310" width="30" height="30" as="geometry" />
        </mxCell>
        <mxCell id="KXitPNdeSQq8kKih_BAc-13" value="fecha" style="ellipse;whiteSpace=wrap;html=1;" vertex="1" parent="1">
          <mxGeometry x="299" y="260" width="40" height="30" as="geometry" />
        </mxCell>
        <mxCell id="KXitPNdeSQq8kKih_BAc-14" value="&lt;u&gt;id_usuario&lt;/u&gt;" style="ellipse;whiteSpace=wrap;html=1;fillColor=#e1d5e7;strokeColor=#9673a6;" vertex="1" parent="1">
          <mxGeometry x="387" y="245" width="66" height="40" as="geometry" />
        </mxCell>
        <mxCell id="KXitPNdeSQq8kKih_BAc-15" value="&lt;u&gt;id_cancion&lt;/u&gt;" style="ellipse;whiteSpace=wrap;html=1;fillColor=#e1d5e7;strokeColor=#9673a6;" vertex="1" parent="1">
          <mxGeometry x="413" y="300" width="66" height="40" as="geometry" />
        </mxCell>
        <mxCell id="KXitPNdeSQq8kKih_BAc-16" value="M:M" style="text;html=1;align=center;verticalAlign=middle;whiteSpace=wrap;rounded=0;" vertex="1" parent="1">
          <mxGeometry x="370" y="350" width="30" height="10" as="geometry" />
        </mxCell>
        <mxCell id="KXitPNdeSQq8kKih_BAc-18" value="1:M" style="text;html=1;align=center;verticalAlign=middle;whiteSpace=wrap;rounded=0;" vertex="1" parent="1">
          <mxGeometry x="510" y="417.5" width="60" height="30" as="geometry" />
        </mxCell>
        <mxCell id="KXitPNdeSQq8kKih_BAc-19" value="" style="endArrow=none;html=1;rounded=0;exitX=0.046;exitY=0.712;exitDx=0;exitDy=0;exitPerimeter=0;entryX=0.933;entryY=0.712;entryDx=0;entryDy=0;entryPerimeter=0;" edge="1" parent="1" source="KXitPNdeSQq8kKih_BAc-15" target="KXitPNdeSQq8kKih_BAc-15">
          <mxGeometry width="50" height="50" relative="1" as="geometry">
            <mxPoint x="540" y="400" as="sourcePoint" />
            <mxPoint x="590" y="350" as="targetPoint" />
          </mxGeometry>
        </mxCell>
        <mxCell id="KXitPNdeSQq8kKih_BAc-20" value="" style="endArrow=none;html=1;rounded=0;exitX=0.04;exitY=0.73;exitDx=0;exitDy=0;exitPerimeter=0;entryX=0.954;entryY=0.717;entryDx=0;entryDy=0;entryPerimeter=0;" edge="1" parent="1" source="KXitPNdeSQq8kKih_BAc-14" target="KXitPNdeSQq8kKih_BAc-14">
          <mxGeometry width="50" height="50" relative="1" as="geometry">
            <mxPoint x="500" y="340" as="sourcePoint" />
            <mxPoint x="550" y="290" as="targetPoint" />
          </mxGeometry>
        </mxCell>
        <mxCell id="KXitPNdeSQq8kKih_BAc-21" value="cargar" style="rhombus;whiteSpace=wrap;html=1;fillColor=#dae8fc;strokeColor=#6c8ebf;" vertex="1" parent="1">
          <mxGeometry x="174" y="280" width="70" height="70" as="geometry" />
        </mxCell>
        <mxCell id="KXitPNdeSQq8kKih_BAc-22" value="" style="endArrow=none;html=1;rounded=0;" edge="1" parent="1" source="KXitPNdeSQq8kKih_BAc-21" target="9e5UFeLO7dfUDB4W6Dz3-4">
          <mxGeometry width="50" height="50" relative="1" as="geometry">
            <mxPoint x="140" y="310" as="sourcePoint" />
            <mxPoint x="190" y="260" as="targetPoint" />
          </mxGeometry>
        </mxCell>
        <mxCell id="KXitPNdeSQq8kKih_BAc-23" value="" style="endArrow=none;html=1;rounded=0;" edge="1" parent="1" source="9e5UFeLO7dfUDB4W6Dz3-1" target="KXitPNdeSQq8kKih_BAc-21">
          <mxGeometry width="50" height="50" relative="1" as="geometry">
            <mxPoint x="190" y="450" as="sourcePoint" />
            <mxPoint x="240" y="400" as="targetPoint" />
          </mxGeometry>
        </mxCell>
        <mxCell id="KXitPNdeSQq8kKih_BAc-25" value="1:M" style="text;html=1;align=center;verticalAlign=middle;whiteSpace=wrap;rounded=0;" vertex="1" parent="1">
          <mxGeometry x="179" y="255" width="60" height="30" as="geometry" />
        </mxCell>
        <mxCell id="KXitPNdeSQq8kKih_BAc-26" value="armar" style="rhombus;whiteSpace=wrap;html=1;fillColor=#dae8fc;strokeColor=#6c8ebf;" vertex="1" parent="1">
          <mxGeometry x="337" y="590" width="66" height="65" as="geometry" />
        </mxCell>
        <mxCell id="KXitPNdeSQq8kKih_BAc-27" value="" style="endArrow=none;html=1;rounded=0;" edge="1" parent="1" source="KXitPNdeSQq8kKih_BAc-26" target="9e5UFeLO7dfUDB4W6Dz3-1">
          <mxGeometry width="50" height="50" relative="1" as="geometry">
            <mxPoint x="250" y="640" as="sourcePoint" />
            <mxPoint x="300" y="590" as="targetPoint" />
          </mxGeometry>
        </mxCell>
        <mxCell id="KXitPNdeSQq8kKih_BAc-28" value="" style="endArrow=none;html=1;rounded=0;" edge="1" parent="1" source="9e5UFeLO7dfUDB4W6Dz3-10" target="KXitPNdeSQq8kKih_BAc-26">
          <mxGeometry width="50" height="50" relative="1" as="geometry">
            <mxPoint x="510" y="710" as="sourcePoint" />
            <mxPoint x="560" y="660" as="targetPoint" />
          </mxGeometry>
        </mxCell>
        <mxCell id="KXitPNdeSQq8kKih_BAc-30" value="" style="endArrow=none;html=1;rounded=0;" edge="1" parent="1" target="9e5UFeLO7dfUDB4W6Dz3-44" source="KXitPNdeSQq8kKih_BAc-39">
          <mxGeometry width="50" height="50" relative="1" as="geometry">
            <mxPoint x="130" y="170" as="sourcePoint" />
            <mxPoint x="60" y="214.99" as="targetPoint" />
          </mxGeometry>
        </mxCell>
        <mxCell id="KXitPNdeSQq8kKih_BAc-31" value="" style="endArrow=none;html=1;rounded=0;" edge="1" parent="1" source="9e5UFeLO7dfUDB4W6Dz3-4" target="KXitPNdeSQq8kKih_BAc-39">
          <mxGeometry width="50" height="50" relative="1" as="geometry">
            <mxPoint x="60" y="284.99" as="sourcePoint" />
            <mxPoint x="250" y="180" as="targetPoint" />
          </mxGeometry>
        </mxCell>
        <mxCell id="KXitPNdeSQq8kKih_BAc-32" value="autor" style="ellipse;whiteSpace=wrap;html=1;" vertex="1" parent="1">
          <mxGeometry x="-40" y="72.99" width="42" height="32" as="geometry" />
        </mxCell>
        <mxCell id="KXitPNdeSQq8kKih_BAc-34" value="M:1" style="text;html=1;align=center;verticalAlign=middle;whiteSpace=wrap;rounded=0;" vertex="1" parent="1">
          <mxGeometry x="189" y="187.49" width="40" height="20" as="geometry" />
        </mxCell>
        <mxCell id="KXitPNdeSQq8kKih_BAc-36" value="&lt;u&gt;id&lt;/u&gt;" style="ellipse;whiteSpace=wrap;html=1;fillColor=#f5f5f5;strokeColor=#666666;fontColor=#333333;" vertex="1" parent="1">
          <mxGeometry x="740" y="92.44" width="36" height="22" as="geometry" />
        </mxCell>
        <mxCell id="KXitPNdeSQq8kKih_BAc-39" value="relacionar" style="rhombus;whiteSpace=wrap;html=1;fillColor=#dae8fc;strokeColor=#6c8ebf;" vertex="1" parent="1">
          <mxGeometry x="169" y="118.74999999999999" width="70" height="70" as="geometry" />
        </mxCell>
        <mxCell id="KXitPNdeSQq8kKih_BAc-40" value="etiqueta" style="rhombus;whiteSpace=wrap;html=1;fillColor=#f8cecc;strokeColor=#b85450;" vertex="1" parent="1">
          <mxGeometry x="540" y="115" width="70" height="70" as="geometry" />
        </mxCell>
        <mxCell id="KXitPNdeSQq8kKih_BAc-41" value="" style="endArrow=none;html=1;rounded=0;" edge="1" parent="1" source="KXitPNdeSQq8kKih_BAc-40" target="9e5UFeLO7dfUDB4W6Dz3-4">
          <mxGeometry width="50" height="50" relative="1" as="geometry">
            <mxPoint x="400" y="154.99" as="sourcePoint" />
            <mxPoint x="460" y="94.99" as="targetPoint" />
          </mxGeometry>
        </mxCell>
        <mxCell id="KXitPNdeSQq8kKih_BAc-42" value="" style="endArrow=none;html=1;rounded=0;" edge="1" parent="1" source="KXitPNdeSQq8kKih_BAc-40" target="9e5UFeLO7dfUDB4W6Dz3-6">
          <mxGeometry width="50" height="50" relative="1" as="geometry">
            <mxPoint x="630" y="292.5" as="sourcePoint" />
            <mxPoint x="680" y="242.5" as="targetPoint" />
          </mxGeometry>
        </mxCell>
        <mxCell id="KXitPNdeSQq8kKih_BAc-43" value="M:M" style="text;html=1;align=center;verticalAlign=middle;whiteSpace=wrap;rounded=0;" vertex="1" parent="1">
          <mxGeometry x="550" y="180" width="50" height="20" as="geometry" />
        </mxCell>
        <mxCell id="KXitPNdeSQq8kKih_BAc-44" value="&lt;u&gt;id&lt;/u&gt;" style="ellipse;whiteSpace=wrap;html=1;fillColor=#f5f5f5;strokeColor=#666666;fontColor=#333333;" vertex="1" parent="1">
          <mxGeometry x="510" y="180" width="40" height="30" as="geometry" />
        </mxCell>
        <mxCell id="KXitPNdeSQq8kKih_BAc-45" value="&lt;u&gt;id&lt;/u&gt;" style="ellipse;whiteSpace=wrap;html=1;fillColor=#f5f5f5;strokeColor=#666666;fontColor=#333333;" vertex="1" parent="1">
          <mxGeometry x="333" y="63.860000000000014" width="32" height="23.07" as="geometry" />
        </mxCell>
        <mxCell id="KXitPNdeSQq8kKih_BAc-46" value="&lt;u&gt;id_contenido&lt;/u&gt;" style="ellipse;whiteSpace=wrap;html=1;fillColor=#e1d5e7;strokeColor=#9673a6;" vertex="1" parent="1">
          <mxGeometry x="610" y="171.24" width="80" height="42.5" as="geometry" />
        </mxCell>
        <mxCell id="KXitPNdeSQq8kKih_BAc-47" value="&lt;u&gt;id_generos&lt;/u&gt;" style="ellipse;whiteSpace=wrap;html=1;fillColor=#e1d5e7;strokeColor=#9673a6;" vertex="1" parent="1">
          <mxGeometry x="586" y="82.19" width="80" height="42.5" as="geometry" />
        </mxCell>
        <mxCell id="KXitPNdeSQq8kKih_BAc-50" value="M:1" style="text;html=1;align=center;verticalAlign=middle;whiteSpace=wrap;rounded=0;" vertex="1" parent="1">
          <mxGeometry x="395" y="612.5" width="50" height="20" as="geometry" />
        </mxCell>
        <mxCell id="KXitPNdeSQq8kKih_BAc-51" value="like" style="ellipse;whiteSpace=wrap;html=1;" vertex="1" parent="1">
          <mxGeometry x="239" y="700" width="40" height="30" as="geometry" />
        </mxCell>
        <mxCell id="KXitPNdeSQq8kKih_BAc-52" value="" style="endArrow=none;html=1;rounded=0;exitX=0.067;exitY=0.757;exitDx=0;exitDy=0;exitPerimeter=0;entryX=0.921;entryY=0.75;entryDx=0;entryDy=0;entryPerimeter=0;" edge="1" parent="1" source="KXitPNdeSQq8kKih_BAc-46" target="KXitPNdeSQq8kKih_BAc-46">
          <mxGeometry width="50" height="50" relative="1" as="geometry">
            <mxPoint x="620" y="317.51" as="sourcePoint" />
            <mxPoint x="670" y="267.51" as="targetPoint" />
          </mxGeometry>
        </mxCell>
        <mxCell id="KXitPNdeSQq8kKih_BAc-53" value="" style="endArrow=none;html=1;rounded=0;" edge="1" parent="1" source="9e5UFeLO7dfUDB4W6Dz3-1" target="9e5UFeLO7dfUDB4W6Dz3-12">
          <mxGeometry width="50" height="50" relative="1" as="geometry">
            <mxPoint x="219" y="602.5" as="sourcePoint" />
            <mxPoint x="269" y="552.5" as="targetPoint" />
          </mxGeometry>
        </mxCell>
        <mxCell id="KXitPNdeSQq8kKih_BAc-54" value="" style="endArrow=none;html=1;rounded=0;" edge="1" parent="1" source="9e5UFeLO7dfUDB4W6Dz3-16" target="9e5UFeLO7dfUDB4W6Dz3-1">
          <mxGeometry width="50" height="50" relative="1" as="geometry">
            <mxPoint x="229" y="612.5" as="sourcePoint" />
            <mxPoint x="279" y="562.5" as="targetPoint" />
          </mxGeometry>
        </mxCell>
        <mxCell id="KXitPNdeSQq8kKih_BAc-55" value="" style="endArrow=none;html=1;rounded=0;" edge="1" parent="1" source="9e5UFeLO7dfUDB4W6Dz3-36" target="9e5UFeLO7dfUDB4W6Dz3-10">
          <mxGeometry width="50" height="50" relative="1" as="geometry">
            <mxPoint x="174" y="827.5" as="sourcePoint" />
            <mxPoint x="224" y="777.5" as="targetPoint" />
          </mxGeometry>
        </mxCell>
        <mxCell id="KXitPNdeSQq8kKih_BAc-56" value="" style="endArrow=none;html=1;rounded=0;" edge="1" parent="1" source="9e5UFeLO7dfUDB4W6Dz3-10" target="KXitPNdeSQq8kKih_BAc-51">
          <mxGeometry width="50" height="50" relative="1" as="geometry">
            <mxPoint x="194" y="850" as="sourcePoint" />
            <mxPoint x="244" y="800" as="targetPoint" />
          </mxGeometry>
        </mxCell>
        <mxCell id="KXitPNdeSQq8kKih_BAc-57" value="" style="endArrow=none;html=1;rounded=0;" edge="1" parent="1" source="9e5UFeLO7dfUDB4W6Dz3-38" target="9e5UFeLO7dfUDB4W6Dz3-10">
          <mxGeometry width="50" height="50" relative="1" as="geometry">
            <mxPoint x="144" y="805" as="sourcePoint" />
            <mxPoint x="350" y="740" as="targetPoint" />
          </mxGeometry>
        </mxCell>
        <mxCell id="KXitPNdeSQq8kKih_BAc-58" value="" style="endArrow=none;html=1;rounded=0;" edge="1" parent="1" source="9e5UFeLO7dfUDB4W6Dz3-48" target="9e5UFeLO7dfUDB4W6Dz3-10">
          <mxGeometry width="50" height="50" relative="1" as="geometry">
            <mxPoint x="119" y="805" as="sourcePoint" />
            <mxPoint x="169" y="755" as="targetPoint" />
          </mxGeometry>
        </mxCell>
        <mxCell id="KXitPNdeSQq8kKih_BAc-59" value="" style="endArrow=none;html=1;rounded=0;" edge="1" parent="1" source="9e5UFeLO7dfUDB4W6Dz3-39" target="9e5UFeLO7dfUDB4W6Dz3-10">
          <mxGeometry width="50" height="50" relative="1" as="geometry">
            <mxPoint x="194" y="840" as="sourcePoint" />
            <mxPoint x="244" y="790" as="targetPoint" />
          </mxGeometry>
        </mxCell>
        <mxCell id="KXitPNdeSQq8kKih_BAc-60" value="" style="endArrow=none;html=1;rounded=0;" edge="1" parent="1" source="9e5UFeLO7dfUDB4W6Dz3-37" target="9e5UFeLO7dfUDB4W6Dz3-10">
          <mxGeometry width="50" height="50" relative="1" as="geometry">
            <mxPoint x="174" y="827.5" as="sourcePoint" />
            <mxPoint x="224" y="777.5" as="targetPoint" />
          </mxGeometry>
        </mxCell>
        <mxCell id="KXitPNdeSQq8kKih_BAc-61" value="" style="endArrow=none;html=1;rounded=0;" edge="1" parent="1" source="9e5UFeLO7dfUDB4W6Dz3-1" target="9e5UFeLO7dfUDB4W6Dz3-14">
          <mxGeometry width="50" height="50" relative="1" as="geometry">
            <mxPoint x="202" y="592.5" as="sourcePoint" />
            <mxPoint x="252" y="542.5" as="targetPoint" />
          </mxGeometry>
        </mxCell>
        <mxCell id="KXitPNdeSQq8kKih_BAc-62" value="" style="endArrow=none;html=1;rounded=0;" edge="1" parent="1" source="9e5UFeLO7dfUDB4W6Dz3-23" target="9e5UFeLO7dfUDB4W6Dz3-1">
          <mxGeometry width="50" height="50" relative="1" as="geometry">
            <mxPoint x="445" y="608.75" as="sourcePoint" />
            <mxPoint x="495" y="558.75" as="targetPoint" />
          </mxGeometry>
        </mxCell>
        <mxCell id="KXitPNdeSQq8kKih_BAc-63" value="" style="endArrow=none;html=1;rounded=0;" edge="1" parent="1" source="9e5UFeLO7dfUDB4W6Dz3-1" target="9e5UFeLO7dfUDB4W6Dz3-13">
          <mxGeometry width="50" height="50" relative="1" as="geometry">
            <mxPoint x="212" y="602.5" as="sourcePoint" />
            <mxPoint x="262" y="552.5" as="targetPoint" />
          </mxGeometry>
        </mxCell>
        <mxCell id="KXitPNdeSQq8kKih_BAc-64" value="" style="endArrow=none;html=1;rounded=0;" edge="1" parent="1" source="9e5UFeLO7dfUDB4W6Dz3-26" target="EkT5r_De4STYr8ik1eJg-1">
          <mxGeometry width="50" height="50" relative="1" as="geometry">
            <mxPoint x="222" y="612.5" as="sourcePoint" />
            <mxPoint x="272" y="562.5" as="targetPoint" />
          </mxGeometry>
        </mxCell>
        <mxCell id="KXitPNdeSQq8kKih_BAc-65" value="" style="endArrow=none;html=1;rounded=0;" edge="1" parent="1" source="KXitPNdeSQq8kKih_BAc-15" target="KXitPNdeSQq8kKih_BAc-2">
          <mxGeometry width="50" height="50" relative="1" as="geometry">
            <mxPoint x="445" y="400" as="sourcePoint" />
            <mxPoint x="495" y="350" as="targetPoint" />
          </mxGeometry>
        </mxCell>
        <mxCell id="KXitPNdeSQq8kKih_BAc-66" value="" style="endArrow=none;html=1;rounded=0;" edge="1" parent="1" source="KXitPNdeSQq8kKih_BAc-12" target="KXitPNdeSQq8kKih_BAc-2">
          <mxGeometry width="50" height="50" relative="1" as="geometry">
            <mxPoint x="314.77589542154146" y="350.00319850026943" as="sourcePoint" />
            <mxPoint x="500" y="382.42" as="targetPoint" />
          </mxGeometry>
        </mxCell>
        <mxCell id="KXitPNdeSQq8kKih_BAc-67" value="" style="endArrow=none;html=1;rounded=0;" edge="1" parent="1" source="KXitPNdeSQq8kKih_BAc-14" target="KXitPNdeSQq8kKih_BAc-2">
          <mxGeometry width="50" height="50" relative="1" as="geometry">
            <mxPoint x="455" y="410" as="sourcePoint" />
            <mxPoint x="505" y="360" as="targetPoint" />
          </mxGeometry>
        </mxCell>
        <mxCell id="KXitPNdeSQq8kKih_BAc-68" value="" style="endArrow=none;html=1;rounded=0;" edge="1" parent="1" source="KXitPNdeSQq8kKih_BAc-13" target="KXitPNdeSQq8kKih_BAc-2">
          <mxGeometry width="50" height="50" relative="1" as="geometry">
            <mxPoint x="465" y="420" as="sourcePoint" />
            <mxPoint x="515" y="370" as="targetPoint" />
          </mxGeometry>
        </mxCell>
        <mxCell id="KXitPNdeSQq8kKih_BAc-69" value="" style="endArrow=none;html=1;rounded=0;" edge="1" parent="1" source="9e5UFeLO7dfUDB4W6Dz3-6" target="9e5UFeLO7dfUDB4W6Dz3-35">
          <mxGeometry width="50" height="50" relative="1" as="geometry">
            <mxPoint x="670" y="307.51" as="sourcePoint" />
            <mxPoint x="720" y="257.51" as="targetPoint" />
          </mxGeometry>
        </mxCell>
        <mxCell id="KXitPNdeSQq8kKih_BAc-70" value="" style="endArrow=none;html=1;rounded=0;" edge="1" parent="1" source="9e5UFeLO7dfUDB4W6Dz3-6" target="KXitPNdeSQq8kKih_BAc-36">
          <mxGeometry width="50" height="50" relative="1" as="geometry">
            <mxPoint x="710" y="317.51" as="sourcePoint" />
            <mxPoint x="760" y="267.51" as="targetPoint" />
          </mxGeometry>
        </mxCell>
        <mxCell id="KXitPNdeSQq8kKih_BAc-71" value="" style="endArrow=none;html=1;rounded=0;" edge="1" parent="1" source="KXitPNdeSQq8kKih_BAc-46" target="KXitPNdeSQq8kKih_BAc-40">
          <mxGeometry width="50" height="50" relative="1" as="geometry">
            <mxPoint x="600" y="327.51" as="sourcePoint" />
            <mxPoint x="650" y="277.51" as="targetPoint" />
          </mxGeometry>
        </mxCell>
        <mxCell id="KXitPNdeSQq8kKih_BAc-72" value="" style="endArrow=none;html=1;rounded=0;" edge="1" parent="1" source="KXitPNdeSQq8kKih_BAc-40" target="KXitPNdeSQq8kKih_BAc-47">
          <mxGeometry width="50" height="50" relative="1" as="geometry">
            <mxPoint x="630" y="287.51" as="sourcePoint" />
            <mxPoint x="680" y="237.51" as="targetPoint" />
          </mxGeometry>
        </mxCell>
        <mxCell id="KXitPNdeSQq8kKih_BAc-73" value="" style="endArrow=none;html=1;rounded=0;" edge="1" parent="1" source="KXitPNdeSQq8kKih_BAc-40" target="KXitPNdeSQq8kKih_BAc-44">
          <mxGeometry width="50" height="50" relative="1" as="geometry">
            <mxPoint x="500" y="127.51" as="sourcePoint" />
            <mxPoint x="550" y="77.51" as="targetPoint" />
          </mxGeometry>
        </mxCell>
        <mxCell id="KXitPNdeSQq8kKih_BAc-75" value="" style="endArrow=none;html=1;rounded=0;" edge="1" parent="1" source="9e5UFeLO7dfUDB4W6Dz3-29" target="9e5UFeLO7dfUDB4W6Dz3-4">
          <mxGeometry width="50" height="50" relative="1" as="geometry">
            <mxPoint x="270" y="110" as="sourcePoint" />
            <mxPoint x="320" y="60" as="targetPoint" />
          </mxGeometry>
        </mxCell>
        <mxCell id="KXitPNdeSQq8kKih_BAc-77" value="" style="endArrow=none;html=1;rounded=0;" edge="1" parent="1" source="9e5UFeLO7dfUDB4W6Dz3-4" target="9e5UFeLO7dfUDB4W6Dz3-32">
          <mxGeometry width="50" height="50" relative="1" as="geometry">
            <mxPoint x="220" y="250" as="sourcePoint" />
            <mxPoint x="270" y="200" as="targetPoint" />
          </mxGeometry>
        </mxCell>
        <mxCell id="KXitPNdeSQq8kKih_BAc-78" value="" style="endArrow=none;html=1;rounded=0;" edge="1" parent="1" source="9e5UFeLO7dfUDB4W6Dz3-4" target="KXitPNdeSQq8kKih_BAc-45">
          <mxGeometry width="50" height="50" relative="1" as="geometry">
            <mxPoint x="180" y="270" as="sourcePoint" />
            <mxPoint x="230" y="220" as="targetPoint" />
          </mxGeometry>
        </mxCell>
        <mxCell id="KXitPNdeSQq8kKih_BAc-79" value="" style="endArrow=none;html=1;rounded=0;" edge="1" parent="1" source="9e5UFeLO7dfUDB4W6Dz3-4" target="9e5UFeLO7dfUDB4W6Dz3-28">
          <mxGeometry width="50" height="50" relative="1" as="geometry">
            <mxPoint x="210" y="250" as="sourcePoint" />
            <mxPoint x="260" y="200" as="targetPoint" />
          </mxGeometry>
        </mxCell>
        <mxCell id="KXitPNdeSQq8kKih_BAc-80" value="" style="endArrow=none;html=1;rounded=0;" edge="1" parent="1" source="9e5UFeLO7dfUDB4W6Dz3-4" target="9e5UFeLO7dfUDB4W6Dz3-27">
          <mxGeometry width="50" height="50" relative="1" as="geometry">
            <mxPoint x="260" y="250" as="sourcePoint" />
            <mxPoint x="310" y="200" as="targetPoint" />
          </mxGeometry>
        </mxCell>
        <mxCell id="KXitPNdeSQq8kKih_BAc-82" value="" style="endArrow=none;html=1;rounded=0;" edge="1" parent="1" source="9e5UFeLO7dfUDB4W6Dz3-4" target="9e5UFeLO7dfUDB4W6Dz3-43">
          <mxGeometry width="50" height="50" relative="1" as="geometry">
            <mxPoint x="260" y="240" as="sourcePoint" />
            <mxPoint x="310" y="190" as="targetPoint" />
          </mxGeometry>
        </mxCell>
        <mxCell id="KXitPNdeSQq8kKih_BAc-83" value="" style="endArrow=none;html=1;rounded=0;" edge="1" parent="1" source="9e5UFeLO7dfUDB4W6Dz3-4" target="9e5UFeLO7dfUDB4W6Dz3-30">
          <mxGeometry width="50" height="50" relative="1" as="geometry">
            <mxPoint x="180" y="260" as="sourcePoint" />
            <mxPoint x="230" y="210" as="targetPoint" />
          </mxGeometry>
        </mxCell>
        <mxCell id="KXitPNdeSQq8kKih_BAc-84" value="" style="endArrow=none;html=1;rounded=0;" edge="1" parent="1" source="9e5UFeLO7dfUDB4W6Dz3-44" target="KXitPNdeSQq8kKih_BAc-32">
          <mxGeometry width="50" height="50" relative="1" as="geometry">
            <mxPoint x="-110" y="200" as="sourcePoint" />
            <mxPoint x="-60" y="150" as="targetPoint" />
          </mxGeometry>
        </mxCell>
        <mxCell id="KXitPNdeSQq8kKih_BAc-85" value="" style="endArrow=none;html=1;rounded=0;" edge="1" parent="1" source="9e5UFeLO7dfUDB4W6Dz3-44" target="9e5UFeLO7dfUDB4W6Dz3-45">
          <mxGeometry width="50" height="50" relative="1" as="geometry">
            <mxPoint x="-120" y="240" as="sourcePoint" />
            <mxPoint x="-70" y="190" as="targetPoint" />
          </mxGeometry>
        </mxCell>
        <mxCell id="KXitPNdeSQq8kKih_BAc-86" value="" style="endArrow=none;html=1;rounded=0;" edge="1" parent="1" source="9e5UFeLO7dfUDB4W6Dz3-44" target="9e5UFeLO7dfUDB4W6Dz3-46">
          <mxGeometry width="50" height="50" relative="1" as="geometry">
            <mxPoint x="-150" y="250" as="sourcePoint" />
            <mxPoint x="-100" y="200" as="targetPoint" />
          </mxGeometry>
        </mxCell>
        <mxCell id="KXitPNdeSQq8kKih_BAc-87" value="" style="endArrow=none;html=1;rounded=0;" edge="1" parent="1" source="9e5UFeLO7dfUDB4W6Dz3-44" target="9e5UFeLO7dfUDB4W6Dz3-47">
          <mxGeometry width="50" height="50" relative="1" as="geometry">
            <mxPoint x="-160" y="270" as="sourcePoint" />
            <mxPoint x="-110" y="220" as="targetPoint" />
          </mxGeometry>
        </mxCell>
        <mxCell id="KXitPNdeSQq8kKih_BAc-88" value="" style="endArrow=none;html=1;rounded=0;" edge="1" parent="1" source="9e5UFeLO7dfUDB4W6Dz3-18" target="9e5UFeLO7dfUDB4W6Dz3-17">
          <mxGeometry width="50" height="50" relative="1" as="geometry">
            <mxPoint x="620" y="580" as="sourcePoint" />
            <mxPoint x="670" y="530" as="targetPoint" />
          </mxGeometry>
        </mxCell>
        <mxCell id="KXitPNdeSQq8kKih_BAc-89" value="" style="endArrow=none;html=1;rounded=0;" edge="1" parent="1" source="9e5UFeLO7dfUDB4W6Dz3-19" target="9e5UFeLO7dfUDB4W6Dz3-17">
          <mxGeometry width="50" height="50" relative="1" as="geometry">
            <mxPoint x="700" y="630" as="sourcePoint" />
            <mxPoint x="750" y="580" as="targetPoint" />
          </mxGeometry>
        </mxCell>
        <mxCell id="KXitPNdeSQq8kKih_BAc-90" value="" style="endArrow=none;html=1;rounded=0;" edge="1" parent="1" source="9e5UFeLO7dfUDB4W6Dz3-17" target="9e5UFeLO7dfUDB4W6Dz3-20">
          <mxGeometry width="50" height="50" relative="1" as="geometry">
            <mxPoint x="700" y="630" as="sourcePoint" />
            <mxPoint x="750" y="580" as="targetPoint" />
          </mxGeometry>
        </mxCell>
        <mxCell id="KXitPNdeSQq8kKih_BAc-91" value="id_contenido" style="ellipse;whiteSpace=wrap;html=1;fillColor=#e1d5e7;strokeColor=#9673a6;" vertex="1" parent="1">
          <mxGeometry x="-82.5" y="167.49" width="80" height="40.02" as="geometry" />
        </mxCell>
        <mxCell id="KXitPNdeSQq8kKih_BAc-92" value="" style="endArrow=none;html=1;rounded=0;exitX=0.063;exitY=0.742;exitDx=0;exitDy=0;exitPerimeter=0;entryX=0.929;entryY=0.742;entryDx=0;entryDy=0;entryPerimeter=0;" edge="1" parent="1" source="KXitPNdeSQq8kKih_BAc-91" target="KXitPNdeSQq8kKih_BAc-91">
          <mxGeometry width="50" height="50" relative="1" as="geometry">
            <mxPoint x="130" y="110" as="sourcePoint" />
            <mxPoint x="180" y="60" as="targetPoint" />
          </mxGeometry>
        </mxCell>
        <mxCell id="KXitPNdeSQq8kKih_BAc-93" value="" style="endArrow=none;html=1;rounded=0;" edge="1" parent="1" source="KXitPNdeSQq8kKih_BAc-91" target="9e5UFeLO7dfUDB4W6Dz3-44">
          <mxGeometry width="50" height="50" relative="1" as="geometry">
            <mxPoint x="130" y="110" as="sourcePoint" />
            <mxPoint x="180" y="60" as="targetPoint" />
          </mxGeometry>
        </mxCell>
        <mxCell id="rpavTBoCxep22fMOwWRB-1" value="&lt;u&gt;id_contenido&lt;/u&gt;" style="ellipse;whiteSpace=wrap;html=1;fillColor=#e1d5e7;strokeColor=#9673a6;" vertex="1" parent="1">
          <mxGeometry x="420" y="660" width="80" height="40" as="geometry" />
        </mxCell>
        <mxCell id="2oU8BLo5mLgfww2ZFK9u-1" value="" style="endArrow=none;html=1;rounded=0;exitX=0.088;exitY=0.789;exitDx=0;exitDy=0;exitPerimeter=0;entryX=0.901;entryY=0.803;entryDx=0;entryDy=0;entryPerimeter=0;" edge="1" parent="1" source="rpavTBoCxep22fMOwWRB-1" target="rpavTBoCxep22fMOwWRB-1">
          <mxGeometry width="50" height="50" relative="1" as="geometry">
            <mxPoint x="540" y="710" as="sourcePoint" />
            <mxPoint x="590" y="660" as="targetPoint" />
          </mxGeometry>
        </mxCell>
        <mxCell id="2oU8BLo5mLgfww2ZFK9u-2" value="" style="endArrow=none;html=1;rounded=0;" edge="1" parent="1" source="9e5UFeLO7dfUDB4W6Dz3-10" target="rpavTBoCxep22fMOwWRB-1">
          <mxGeometry width="50" height="50" relative="1" as="geometry">
            <mxPoint x="360" y="710" as="sourcePoint" />
            <mxPoint x="410" y="660" as="targetPoint" />
          </mxGeometry>
        </mxCell>
        <mxCell id="2oU8BLo5mLgfww2ZFK9u-3" value="&lt;u&gt;aprobado&lt;/u&gt;" style="ellipse;whiteSpace=wrap;html=1;fillColor=#e1d5e7;strokeColor=#9673a6;" vertex="1" parent="1">
          <mxGeometry x="87.5" y="182.49" width="62.5" height="37.51" as="geometry" />
        </mxCell>
        <mxCell id="2oU8BLo5mLgfww2ZFK9u-4" value="" style="endArrow=none;html=1;rounded=0;" edge="1" parent="1" source="9e5UFeLO7dfUDB4W6Dz3-44" target="2oU8BLo5mLgfww2ZFK9u-3">
          <mxGeometry width="50" height="50" relative="1" as="geometry">
            <mxPoint x="150" y="330" as="sourcePoint" />
            <mxPoint x="200" y="280" as="targetPoint" />
          </mxGeometry>
        </mxCell>
        <mxCell id="2oU8BLo5mLgfww2ZFK9u-5" value="&lt;u&gt;aprobado&lt;/u&gt;" style="ellipse;whiteSpace=wrap;html=1;fillColor=#e1d5e7;strokeColor=#9673a6;" vertex="1" parent="1">
          <mxGeometry x="258" y="171.24" width="60" height="32.51" as="geometry" />
        </mxCell>
        <mxCell id="2oU8BLo5mLgfww2ZFK9u-6" value="" style="endArrow=none;html=1;rounded=0;" edge="1" parent="1" source="9e5UFeLO7dfUDB4W6Dz3-4" target="2oU8BLo5mLgfww2ZFK9u-5">
          <mxGeometry width="50" height="50" relative="1" as="geometry">
            <mxPoint x="335" y="166.25" as="sourcePoint" />
            <mxPoint x="300" y="190" as="targetPoint" />
          </mxGeometry>
        </mxCell>
        <mxCell id="2oU8BLo5mLgfww2ZFK9u-7" value="texto" style="ellipse;whiteSpace=wrap;html=1;" vertex="1" parent="1">
          <mxGeometry x="97.5" y="46.36" width="42.5" height="33.64" as="geometry" />
        </mxCell>
        <mxCell id="2oU8BLo5mLgfww2ZFK9u-9" value="" style="endArrow=none;html=1;rounded=0;" edge="1" parent="1" source="2oU8BLo5mLgfww2ZFK9u-7" target="9e5UFeLO7dfUDB4W6Dz3-44">
          <mxGeometry width="50" height="50" relative="1" as="geometry">
            <mxPoint x="150" y="330" as="sourcePoint" />
            <mxPoint x="200" y="280" as="targetPoint" />
          </mxGeometry>
        </mxCell>
        <mxCell id="EkT5r_De4STYr8ik1eJg-1" value="ROLES" style="rounded=0;whiteSpace=wrap;html=1;fillColor=#d5e8d4;strokeColor=#82b366;" vertex="1" parent="1">
          <mxGeometry x="-57.5" y="460" width="100" height="40" as="geometry" />
        </mxCell>
        <mxCell id="XMgXkptwN2kOxMbdnJek-1" value="asignar" style="rhombus;whiteSpace=wrap;html=1;fillColor=#dae8fc;strokeColor=#6c8ebf;" vertex="1" parent="1">
          <mxGeometry x="127.5" y="440" width="80" height="80" as="geometry" />
        </mxCell>
        <mxCell id="XMgXkptwN2kOxMbdnJek-2" value="" style="endArrow=none;html=1;rounded=0;" edge="1" parent="1" source="XMgXkptwN2kOxMbdnJek-1" target="9e5UFeLO7dfUDB4W6Dz3-1">
          <mxGeometry width="50" height="50" relative="1" as="geometry">
            <mxPoint x="60" y="640" as="sourcePoint" />
            <mxPoint x="110" y="590" as="targetPoint" />
          </mxGeometry>
        </mxCell>
        <mxCell id="XMgXkptwN2kOxMbdnJek-3" value="" style="endArrow=none;html=1;rounded=0;" edge="1" parent="1" source="XMgXkptwN2kOxMbdnJek-1" target="EkT5r_De4STYr8ik1eJg-1">
          <mxGeometry width="50" height="50" relative="1" as="geometry">
            <mxPoint x="30" y="600" as="sourcePoint" />
            <mxPoint x="80" y="550" as="targetPoint" />
          </mxGeometry>
        </mxCell>
        <mxCell id="XMgXkptwN2kOxMbdnJek-4" value="1:M" style="text;html=1;align=center;verticalAlign=middle;whiteSpace=wrap;rounded=0;" vertex="1" parent="1">
          <mxGeometry x="135.5" y="417.5" width="60" height="30" as="geometry" />
        </mxCell>
        <mxCell id="XMgXkptwN2kOxMbdnJek-5" value="rol" style="ellipse;whiteSpace=wrap;html=1;" vertex="1" parent="1">
          <mxGeometry x="-40" y="536.25" width="40" height="30" as="geometry" />
        </mxCell>
        <mxCell id="XMgXkptwN2kOxMbdnJek-6" value="" style="endArrow=none;html=1;rounded=0;" edge="1" parent="1" source="XMgXkptwN2kOxMbdnJek-5" target="EkT5r_De4STYr8ik1eJg-1">
          <mxGeometry width="50" height="50" relative="1" as="geometry">
            <mxPoint x="90" y="560" as="sourcePoint" />
            <mxPoint x="150" y="516.25" as="targetPoint" />
          </mxGeometry>
        </mxCell>
        <mxCell id="XMgXkptwN2kOxMbdnJek-8" value="&lt;u&gt;rol&lt;/u&gt;" style="ellipse;whiteSpace=wrap;html=1;fillColor=#e1d5e7;strokeColor=#9673a6;" vertex="1" parent="1">
          <mxGeometry x="297" y="531.25" width="40" height="30" as="geometry" />
        </mxCell>
        <mxCell id="XMgXkptwN2kOxMbdnJek-9" value="" style="endArrow=none;html=1;rounded=0;" edge="1" parent="1" source="XMgXkptwN2kOxMbdnJek-8" target="9e5UFeLO7dfUDB4W6Dz3-1">
          <mxGeometry width="50" height="50" relative="1" as="geometry">
            <mxPoint x="429.5" y="545" as="sourcePoint" />
            <mxPoint x="373.2142857142858" y="477.5" as="targetPoint" />
          </mxGeometry>
        </mxCell>
        <mxCell id="XMgXkptwN2kOxMbdnJek-10" value="" style="endArrow=none;html=1;rounded=0;entryX=0.072;entryY=0.806;entryDx=0;entryDy=0;entryPerimeter=0;exitX=0.897;exitY=0.837;exitDx=0;exitDy=0;exitPerimeter=0;" edge="1" parent="1" source="XMgXkptwN2kOxMbdnJek-8" target="XMgXkptwN2kOxMbdnJek-8">
          <mxGeometry width="50" height="50" relative="1" as="geometry">
            <mxPoint x="240" y="590" as="sourcePoint" />
            <mxPoint x="290" y="540" as="targetPoint" />
          </mxGeometry>
        </mxCell>
        <mxCell id="XMgXkptwN2kOxMbdnJek-11" value="" style="endArrow=none;html=1;rounded=0;exitX=0.082;exitY=0.747;exitDx=0;exitDy=0;exitPerimeter=0;entryX=0.918;entryY=0.774;entryDx=0;entryDy=0;entryPerimeter=0;" edge="1" parent="1" source="KXitPNdeSQq8kKih_BAc-47" target="KXitPNdeSQq8kKih_BAc-47">
          <mxGeometry width="50" height="50" relative="1" as="geometry">
            <mxPoint x="690" y="317.51" as="sourcePoint" />
            <mxPoint x="740" y="267.51" as="targetPoint" />
          </mxGeometry>
        </mxCell>
        <mxCell id="XMgXkptwN2kOxMbdnJek-12" value="TIPO" style="rounded=0;whiteSpace=wrap;html=1;fillColor=#d5e8d4;strokeColor=#82b366;" vertex="1" parent="1">
          <mxGeometry x="-320" y="132.5" width="100" height="40" as="geometry" />
        </mxCell>
        <mxCell id="XMgXkptwN2kOxMbdnJek-13" value="&lt;u&gt;id&lt;/u&gt;" style="ellipse;whiteSpace=wrap;html=1;fillColor=#f5f5f5;strokeColor=#666666;fontColor=#333333;" vertex="1" parent="1">
          <mxGeometry x="-300" y="194.99" width="30" height="20" as="geometry" />
        </mxCell>
        <mxCell id="XMgXkptwN2kOxMbdnJek-14" value="nombre" style="ellipse;whiteSpace=wrap;html=1;" vertex="1" parent="1">
          <mxGeometry x="-260" y="192.49" width="60" height="40" as="geometry" />
        </mxCell>
        <mxCell id="XMgXkptwN2kOxMbdnJek-15" value="formato" style="ellipse;whiteSpace=wrap;html=1;" vertex="1" parent="1">
          <mxGeometry x="104" y="94.93" width="60" height="40" as="geometry" />
        </mxCell>
        <mxCell id="XMgXkptwN2kOxMbdnJek-16" value="" style="endArrow=none;html=1;rounded=0;" edge="1" parent="1" source="9e5UFeLO7dfUDB4W6Dz3-44" target="XMgXkptwN2kOxMbdnJek-15">
          <mxGeometry width="50" height="50" relative="1" as="geometry">
            <mxPoint x="-180" y="230" as="sourcePoint" />
            <mxPoint x="-130" y="180" as="targetPoint" />
          </mxGeometry>
        </mxCell>
        <mxCell id="XMgXkptwN2kOxMbdnJek-17" value="" style="endArrow=none;html=1;rounded=0;" edge="1" parent="1" source="XMgXkptwN2kOxMbdnJek-14" target="XMgXkptwN2kOxMbdnJek-12">
          <mxGeometry width="50" height="50" relative="1" as="geometry">
            <mxPoint x="-160" y="160" as="sourcePoint" />
            <mxPoint x="-110" y="110" as="targetPoint" />
          </mxGeometry>
        </mxCell>
        <mxCell id="XMgXkptwN2kOxMbdnJek-18" value="" style="endArrow=none;html=1;rounded=0;" edge="1" parent="1" source="XMgXkptwN2kOxMbdnJek-13" target="XMgXkptwN2kOxMbdnJek-12">
          <mxGeometry width="50" height="50" relative="1" as="geometry">
            <mxPoint x="-160" y="210" as="sourcePoint" />
            <mxPoint x="-110" y="160" as="targetPoint" />
          </mxGeometry>
        </mxCell>
        <mxCell id="XMgXkptwN2kOxMbdnJek-19" value="asignar" style="rhombus;whiteSpace=wrap;html=1;fillColor=#dae8fc;strokeColor=#6c8ebf;" vertex="1" parent="1">
          <mxGeometry x="-162.5" y="116.24" width="75" height="72.51" as="geometry" />
        </mxCell>
        <mxCell id="XMgXkptwN2kOxMbdnJek-20" value="" style="endArrow=none;html=1;rounded=0;" edge="1" parent="1" source="XMgXkptwN2kOxMbdnJek-12" target="XMgXkptwN2kOxMbdnJek-19">
          <mxGeometry width="50" height="50" relative="1" as="geometry">
            <mxPoint x="-230" y="100" as="sourcePoint" />
            <mxPoint x="-180" y="50" as="targetPoint" />
          </mxGeometry>
        </mxCell>
        <mxCell id="XMgXkptwN2kOxMbdnJek-21" value="" style="endArrow=none;html=1;rounded=0;" edge="1" parent="1" source="XMgXkptwN2kOxMbdnJek-19" target="9e5UFeLO7dfUDB4W6Dz3-44">
          <mxGeometry width="50" height="50" relative="1" as="geometry">
            <mxPoint x="-190" y="90" as="sourcePoint" />
            <mxPoint x="-140" y="40" as="targetPoint" />
          </mxGeometry>
        </mxCell>
        <mxCell id="XMgXkptwN2kOxMbdnJek-22" value="" style="endArrow=none;html=1;rounded=0;exitX=0.063;exitY=0.84;exitDx=0;exitDy=0;exitPerimeter=0;entryX=1;entryY=1;entryDx=0;entryDy=0;" edge="1" parent="1" source="9e5UFeLO7dfUDB4W6Dz3-45" target="9e5UFeLO7dfUDB4W6Dz3-45">
          <mxGeometry width="50" height="50" relative="1" as="geometry">
            <mxPoint x="-140" y="250" as="sourcePoint" />
            <mxPoint x="-90" y="200" as="targetPoint" />
          </mxGeometry>
        </mxCell>
        <mxCell id="r7Wntm6kUiVyY7Dd07tX-2" value="MODERACION" style="rounded=0;whiteSpace=wrap;html=1;fillColor=#d5e8d4;strokeColor=#82b366;" vertex="1" parent="1">
          <mxGeometry x="154" y="-20" width="100" height="40" as="geometry" />
        </mxCell>
        <mxCell id="r7Wntm6kUiVyY7Dd07tX-3" value="&lt;u&gt;id&lt;/u&gt;" style="ellipse;whiteSpace=wrap;html=1;fillColor=#f5f5f5;strokeColor=#666666;fontColor=#333333;" vertex="1" parent="1">
          <mxGeometry x="152.5" y="-60" width="30" height="20" as="geometry" />
        </mxCell>
        <mxCell id="r7Wntm6kUiVyY7Dd07tX-4" value="aprobado" style="ellipse;whiteSpace=wrap;html=1;" vertex="1" parent="1">
          <mxGeometry x="190.5" y="-80" width="63.5" height="30" as="geometry" />
        </mxCell>
        <mxCell id="r7Wntm6kUiVyY7Dd07tX-5" value="" style="endArrow=none;html=1;rounded=0;" edge="1" parent="1" source="r7Wntm6kUiVyY7Dd07tX-2" target="r7Wntm6kUiVyY7Dd07tX-3">
          <mxGeometry width="50" height="50" relative="1" as="geometry">
            <mxPoint x="10" y="20" as="sourcePoint" />
            <mxPoint x="60" y="-30" as="targetPoint" />
          </mxGeometry>
        </mxCell>
        <mxCell id="r7Wntm6kUiVyY7Dd07tX-6" value="" style="endArrow=none;html=1;rounded=0;" edge="1" parent="1" source="r7Wntm6kUiVyY7Dd07tX-4" target="r7Wntm6kUiVyY7Dd07tX-2">
          <mxGeometry width="50" height="50" relative="1" as="geometry">
            <mxPoint x="260" y="-10" as="sourcePoint" />
            <mxPoint x="310" y="-60" as="targetPoint" />
          </mxGeometry>
        </mxCell>
        <mxCell id="r7Wntm6kUiVyY7Dd07tX-7" value="" style="endArrow=none;html=1;rounded=0;exitX=0.033;exitY=0.73;exitDx=0;exitDy=0;exitPerimeter=0;entryX=0.935;entryY=0.76;entryDx=0;entryDy=0;entryPerimeter=0;" edge="1" parent="1" source="2oU8BLo5mLgfww2ZFK9u-3" target="2oU8BLo5mLgfww2ZFK9u-3">
          <mxGeometry width="50" height="50" relative="1" as="geometry">
            <mxPoint x="105.5" y="237.49" as="sourcePoint" />
            <mxPoint x="155.5" y="187.49" as="targetPoint" />
          </mxGeometry>
        </mxCell>
        <mxCell id="r7Wntm6kUiVyY7Dd07tX-8" value="" style="endArrow=none;html=1;rounded=0;exitX=0.104;exitY=0.834;exitDx=0;exitDy=0;exitPerimeter=0;entryX=0.9;entryY=0.817;entryDx=0;entryDy=0;entryPerimeter=0;" edge="1" parent="1" source="2oU8BLo5mLgfww2ZFK9u-5" target="2oU8BLo5mLgfww2ZFK9u-5">
          <mxGeometry width="50" height="50" relative="1" as="geometry">
            <mxPoint x="250" y="250" as="sourcePoint" />
            <mxPoint x="300" y="200" as="targetPoint" />
          </mxGeometry>
        </mxCell>
        <mxCell id="r7Wntm6kUiVyY7Dd07tX-10" value="moderar" style="rhombus;whiteSpace=wrap;html=1;fillColor=#dae8fc;strokeColor=#6c8ebf;" vertex="1" parent="1">
          <mxGeometry x="12.5" y="-35.000000000000014" width="70" height="70" as="geometry" />
        </mxCell>
        <mxCell id="r7Wntm6kUiVyY7Dd07tX-11" value="" style="endArrow=none;html=1;rounded=0;" edge="1" parent="1" source="9e5UFeLO7dfUDB4W6Dz3-44" target="r7Wntm6kUiVyY7Dd07tX-10">
          <mxGeometry width="50" height="50" relative="1" as="geometry">
            <mxPoint x="20" y="110" as="sourcePoint" />
            <mxPoint x="70" y="60" as="targetPoint" />
          </mxGeometry>
        </mxCell>
        <mxCell id="r7Wntm6kUiVyY7Dd07tX-12" value="" style="endArrow=none;html=1;rounded=0;" edge="1" parent="1" source="r7Wntm6kUiVyY7Dd07tX-10" target="r7Wntm6kUiVyY7Dd07tX-2">
          <mxGeometry width="50" height="50" relative="1" as="geometry">
            <mxPoint x="-30" as="sourcePoint" />
            <mxPoint x="20" y="-50" as="targetPoint" />
          </mxGeometry>
        </mxCell>
        <mxCell id="r7Wntm6kUiVyY7Dd07tX-13" value="moderar" style="rhombus;whiteSpace=wrap;html=1;fillColor=#dae8fc;strokeColor=#6c8ebf;" vertex="1" parent="1">
          <mxGeometry x="333" y="-35.000000000000014" width="70" height="70" as="geometry" />
        </mxCell>
        <mxCell id="r7Wntm6kUiVyY7Dd07tX-14" value="" style="endArrow=none;html=1;rounded=0;" edge="1" parent="1" source="r7Wntm6kUiVyY7Dd07tX-2" target="r7Wntm6kUiVyY7Dd07tX-13">
          <mxGeometry width="50" height="50" relative="1" as="geometry">
            <mxPoint x="220" y="80" as="sourcePoint" />
            <mxPoint x="270" y="30" as="targetPoint" />
          </mxGeometry>
        </mxCell>
        <mxCell id="r7Wntm6kUiVyY7Dd07tX-15" value="" style="endArrow=none;html=1;rounded=0;" edge="1" parent="1" source="9e5UFeLO7dfUDB4W6Dz3-4" target="r7Wntm6kUiVyY7Dd07tX-13">
          <mxGeometry width="50" height="50" relative="1" as="geometry">
            <mxPoint x="300" y="100" as="sourcePoint" />
            <mxPoint x="350" y="50" as="targetPoint" />
          </mxGeometry>
        </mxCell>
        <mxCell id="r7Wntm6kUiVyY7Dd07tX-16" value="1:M" style="text;html=1;align=center;verticalAlign=middle;whiteSpace=wrap;rounded=0;" vertex="1" parent="1">
          <mxGeometry x="340" y="-60" width="60" height="30" as="geometry" />
        </mxCell>
        <mxCell id="r7Wntm6kUiVyY7Dd07tX-17" value="1:M" style="text;html=1;align=center;verticalAlign=middle;whiteSpace=wrap;rounded=0;" vertex="1" parent="1">
          <mxGeometry x="17.5" y="-60" width="60" height="30" as="geometry" />
        </mxCell>
        <mxCell id="r7Wntm6kUiVyY7Dd07tX-18" value="FORMATO" style="rounded=0;whiteSpace=wrap;html=1;fillColor=#d5e8d4;strokeColor=#82b366;" vertex="1" parent="1">
          <mxGeometry x="560" y="-30" width="100" height="40" as="geometry" />
        </mxCell>
        <mxCell id="r7Wntm6kUiVyY7Dd07tX-19" value="moderar" style="rhombus;whiteSpace=wrap;html=1;fillColor=#dae8fc;strokeColor=#6c8ebf;" vertex="1" parent="1">
          <mxGeometry x="469" y="22.439999999999984" width="70" height="70" as="geometry" />
        </mxCell>
        <mxCell id="r7Wntm6kUiVyY7Dd07tX-20" value="" style="endArrow=none;html=1;rounded=0;" edge="1" parent="1" source="r7Wntm6kUiVyY7Dd07tX-19" target="9e5UFeLO7dfUDB4W6Dz3-4">
          <mxGeometry width="50" height="50" relative="1" as="geometry">
            <mxPoint x="450" y="230" as="sourcePoint" />
            <mxPoint x="500" y="180" as="targetPoint" />
          </mxGeometry>
        </mxCell>
        <mxCell id="r7Wntm6kUiVyY7Dd07tX-21" value="" style="endArrow=none;html=1;rounded=0;" edge="1" parent="1" source="r7Wntm6kUiVyY7Dd07tX-19" target="r7Wntm6kUiVyY7Dd07tX-18">
          <mxGeometry width="50" height="50" relative="1" as="geometry">
            <mxPoint x="570" y="77.51" as="sourcePoint" />
            <mxPoint x="620" y="27.509999999999998" as="targetPoint" />
          </mxGeometry>
        </mxCell>
        <mxCell id="r7Wntm6kUiVyY7Dd07tX-22" value="" style="endArrow=none;html=1;rounded=0;exitX=0.095;exitY=0.797;exitDx=0;exitDy=0;exitPerimeter=0;entryX=0.904;entryY=0.795;entryDx=0;entryDy=0;entryPerimeter=0;" edge="1" parent="1" source="9e5UFeLO7dfUDB4W6Dz3-32" target="9e5UFeLO7dfUDB4W6Dz3-32">
          <mxGeometry width="50" height="50" relative="1" as="geometry">
            <mxPoint x="270" y="170" as="sourcePoint" />
            <mxPoint x="320" y="120" as="targetPoint" />
          </mxGeometry>
        </mxCell>
        <mxCell id="r7Wntm6kUiVyY7Dd07tX-23" value="&lt;u&gt;id&lt;/u&gt;" style="ellipse;whiteSpace=wrap;html=1;fillColor=#f5f5f5;strokeColor=#666666;fontColor=#333333;" vertex="1" parent="1">
          <mxGeometry x="586" y="-62" width="36" height="22" as="geometry" />
        </mxCell>
        <mxCell id="r7Wntm6kUiVyY7Dd07tX-24" value="nombre" style="ellipse;whiteSpace=wrap;html=1;" vertex="1" parent="1">
          <mxGeometry x="640" y="-77.01" width="54" height="37.01" as="geometry" />
        </mxCell>
        <mxCell id="r7Wntm6kUiVyY7Dd07tX-25" value="" style="endArrow=none;html=1;rounded=0;" edge="1" parent="1" source="r7Wntm6kUiVyY7Dd07tX-24" target="r7Wntm6kUiVyY7Dd07tX-18">
          <mxGeometry width="50" height="50" relative="1" as="geometry">
            <mxPoint x="660" y="40" as="sourcePoint" />
            <mxPoint x="710" y="-10" as="targetPoint" />
          </mxGeometry>
        </mxCell>
        <mxCell id="r7Wntm6kUiVyY7Dd07tX-26" value="" style="endArrow=none;html=1;rounded=0;entryX=0.5;entryY=1;entryDx=0;entryDy=0;" edge="1" parent="1" source="r7Wntm6kUiVyY7Dd07tX-18" target="r7Wntm6kUiVyY7Dd07tX-23">
          <mxGeometry width="50" height="50" relative="1" as="geometry">
            <mxPoint x="570" y="70" as="sourcePoint" />
            <mxPoint x="620" y="20" as="targetPoint" />
          </mxGeometry>
        </mxCell>
        <mxCell id="r7Wntm6kUiVyY7Dd07tX-27" value="1:M" style="text;html=1;align=center;verticalAlign=middle;whiteSpace=wrap;rounded=0;" vertex="1" parent="1">
          <mxGeometry x="-145" y="187.49" width="40" height="20" as="geometry" />
        </mxCell>
        <mxCell id="r7Wntm6kUiVyY7Dd07tX-28" value="1:M" style="text;html=1;align=center;verticalAlign=middle;whiteSpace=wrap;rounded=0;" vertex="1" parent="1">
          <mxGeometry x="475" width="60" height="30" as="geometry" />
        </mxCell>
      </root>
    </mxGraphModel>
  </diagram>
</mxfile>
